HIERARCHY
ROOT ui
{
	 OFFSET 0 0 0
	 CHANNELS 3 XPosition YPosition Z Position
	 EndSite
	 {
	 OFFSET 0 -1 0
	 }
}
ROOT li
{
	 OFFSET 0 0 0
	 CHANNELS 3 XPosition YPosition Z Position
	 EndSite
	 {
	 OFFSET 0 -1 0
	 }
}
ROOT ul
{
	 OFFSET 0 0 0
	 CHANNELS 3 XPosition YPosition Z Position
	 EndSite
	 {
	 OFFSET 0 -1 0
	 }
}
ROOT ll
{
	 OFFSET 0 0 0
	 CHANNELS 3 XPosition YPosition Z Position
	 EndSite
	 {
	 OFFSET 0 -1 0
	 }
}
ROOT tt
{
	 OFFSET 0 0 0
	 CHANNELS 3 XPosition YPosition Z Position
	 EndSite
	 {
	 OFFSET 0 -1 0
	 }
}
ROOT tb
{
	 OFFSET 0 0 0
	 CHANNELS 3 XPosition YPosition Z Position
	 EndSite
	 {
	 OFFSET 0 -1 0
	 }
}
ROOT td
{
	 OFFSET 0 0 0
	 CHANNELS 3 XPosition YPosition Z Position
	 EndSite
	 {
	 OFFSET 0 -1 0
	 }
}
ROOT v
{
	 OFFSET 0 0 0
	 CHANNELS 3 XPosition YPosition Z Position
	 EndSite
	 {
	 OFFSET 0 -1 0
	 }
}
ROOT bn
{
	 OFFSET 0 0 0
	 CHANNELS 3 XPosition YPosition Z Position
	 EndSite
	 {
	 OFFSET 0 -1 0
	 }
}
MOTION
Frames: 32
Frame Time: 0.002
0.004360109806060791	-2.08856001496315E-4	0		0.48715457153320313	-2.555927490234375	0		-1.0659912109375	0.0502404899597168	0		-0.7852764892578125	-2.704397216796875	0		1.3118387451171876	-0.8904002075195312	0		3.2214365234375	-0.5406953125	0		4.772095703125	-0.3794984741210938	0		5.563791015625	0.18040509033203125	0		-0.21802630615234375	5.96491162109375	0		
-0.0719979248046875	0.0017006009817123412	0		0.5205157470703125	-2.570960693359375	0		-1.0653541259765624	0.05036767578125	0		-0.7518331909179687	-2.709918212890625	0		1.29111474609375	-0.8899007568359375	0		3.186981201171875	-0.5327461547851563	0		4.76152880859375	-0.3835515747070313	0		5.5703212890625	0.16776571655273437	0		-0.08167415618896484	5.9845966796875	0		
0.005666985034942627	-8.176640272140503E-4	0		0.47136773681640626	-2.56067626953125	0		-1.048759033203125	0.04322461318969727	0		-0.7732168579101563	-2.7105869140625	0		1.3301123046875	-0.9123359375	0		3.225231689453125	-0.548908203125	0		4.76206884765625	-0.38571786499023436	0		5.57933447265625	0.18115145874023436	0		-0.19583587646484374	5.9732177734375	0		
0.013544330596923828	0.005764617919921875	0		0.5011995239257813	-2.55964794921875	0		-1.039865234375	0.0501856803894043	0		-0.7683716430664063	-2.70467919921875	0		1.2918525390625	-0.8934912719726562	0		3.209171142578125	-0.5271383666992188	0		4.76578564453125	-0.3818525390625	0		5.5801650390625	0.17876075744628905	0		-0.07466780090332031	5.98203955078125	0		
0.011316164016723633	0.0015187070369720459	0		0.49909548950195315	-2.562083740234375	0		-1.0548900146484375	0.05753116607666016	0		-0.7386497802734375	-2.714204345703125	0		1.3154368896484374	-0.8906304931640625	0		3.194535888671875	-0.5453126831054688	0		4.76441943359375	-0.3878000183105469	0		5.5769306640625	0.16855886840820314	0		-0.07267628479003906	5.9837900390625	0		
0.012227788925170898	0.0012315750122070313	0		0.5023296203613281	-2.55258544921875	0		-1.0620791015625	0.05073599624633789	0		-0.7844414672851563	-2.702452392578125	0		1.2930218505859374	-0.8929533081054688	0		3.20926416015625	-0.546895263671875	0		4.76006494140625	-0.3975743408203125	0		5.56793310546875	0.1685999755859375	0		-0.06978301239013672	5.9835302734375	0		
0.01321071720123291	9.552090167999267E-4	0		0.46932498168945314	-2.564431640625	0		-1.0610809326171875	0.050788719177246096	0		-0.7503795776367187	-2.70807958984375	0		1.3147100830078124	-0.8949898071289063	0		3.22197216796875	-0.5543602905273437	0		4.76092578125	-0.3993050842285156	0		5.568966796875	0.16662173461914062	0		-0.066967529296875	5.98327880859375	0		
0.010206345558166505	-0.002237170934677124	0		0.4976307373046875	-2.566322021484375	0		-1.0559656982421874	0.0537546272277832	0		-0.7731416625976563	-2.71071923828125	0		1.2796549072265626	-0.8869796142578125	0		3.200241943359375	-0.5341192626953125	0		4.7659677734375	-0.39497454833984375	0		5.5800244140625	0.1626197509765625	0		-0.19662774658203125	5.96239111328125	0		
0.021489471435546876	0.007331216812133789	0		0.4752280578613281	-2.55828173828125	0		-1.04672216796875	0.06063199234008789	0		-0.7445714111328126	-2.702275634765625	0		1.3245439453125	-0.8873480834960937	0		3.197939697265625	-0.550126953125	0		4.75597314453125	-0.39624017333984374	0		5.5804775390625	0.1779627685546875	0		-0.0616059799194336	5.982806640625	0		
0.016512855529785157	2.050130069255829E-4	0		0.5006908264160156	-2.564080078125	0		-1.0496136474609374	0.05771502304077149	0		-0.781021728515625	-2.7006591796875	0		1.2814769287109375	-0.8880808715820312	0		3.222085693359375	-0.5445188598632813	0		4.76391943359375	-0.40369677734375	0		5.57752197265625	0.16851744079589845	0		-0.059076751708984375	5.98258837890625	0		
-0.06025958251953125	0.0034269449710845946	0		0.4992816467285156	-2.56736328125	0		-0.9825836791992187	0.04849581909179688	0		-0.747502197265625	-2.706323974609375	0		1.32037109375	-0.8942655639648438	0		3.210929931640625	-0.5571795043945312	0		4.755033203125	-0.403716064453125	0		5.57873388671875	0.16714479064941407	0		-0.18906303405761718	5.9618291015625	0		
0.01482529067993164	-0.0031459128856658938	0		0.4891297607421875	-2.56045361328125	0		-1.0553525390625	0.05085770797729492	0		-0.783787353515625	-2.704697021484375	0		1.29836279296875	-0.8962822265625	0		3.20616796875	-0.5498653564453125	0		4.75614892578125	-0.40479843139648436	0		5.579955078125	0.1659099578857422	0		-0.22087522888183594	5.9562978515625	0		
0.016016780853271486	-0.0033362629413604735	0		0.5028235473632813	-2.56496630859375	0		-1.044191650390625	0.048654998779296875	0		-0.7352176513671875	-2.7146591796875	0		1.284542236328125	-0.88940185546875	0		3.21292919921875	-0.5686897583007813	0		4.7535009765625	-0.3936942138671875	0		5.59015380859375	0.16363616943359374	0		-0.182635986328125	5.959466796875	0		
-0.04060007476806641	0.007587407112121582	0		0.5067127075195312	-2.56127001953125	0		-1.0289659423828126	0.0503654670715332	0		-0.7622114868164063	-2.703197265625	0		1.2965953369140626	-0.8899695434570313	0		3.2264462890625	-0.5475581665039062	0		4.7614931640625	-0.4016843566894531	0		5.59136083984375	0.16265716552734374	0		-0.03497468948364258	5.9905595703125	0		
0.022420736312866212	-7.511669993400574E-4	0		0.5304214477539062	-2.56893115234375	0		-0.9696905517578125	0.05522379684448242	0		-0.742405029296875	-2.704625244140625	0		1.309704833984375	-0.8875203247070312	0		3.201337646484375	-0.5586198120117187	0		4.75951318359375	-0.4073775329589844	0		5.58771875	0.17089654541015625	0		-0.048234561920166015	5.9816923828125	0		
0.023558723449707032	-8.998979926109314E-4	0		0.5032944641113282	-2.56859521484375	0		-1.0425137939453124	0.05760156631469727	0		-0.7327453002929688	-2.714864501953125	0		1.328650146484375	-0.8931494750976563	0		3.213299560546875	-0.565313232421875	0		4.7606083984375	-0.4080245056152344	0		5.579587890625	0.15533821105957032	0		-0.046467330932617186	5.98155126953125	0		
0.020602291107177734	-0.003958023071289062	0		0.5192453002929688	-2.565063232421875	0		-0.97557470703125	0.048285938262939455	0		-0.7329200439453125	-2.716914794921875	0		1.306638671875	-0.8949549560546874	0		3.20523681640625	-0.5715528564453125	0		4.7565009765625	-0.41747601318359373	0		5.590662109375	0.15252421569824218	0		-0.17726344299316407	5.96097412109375	0		
-0.05223737335205078	0.0023516530990600588	0		0.48013983154296874	-2.563447265625	0		-1.0344520263671875	0.052395442962646484	0		-0.7639215698242188	-2.70936572265625	0		1.3165650634765624	-0.8983435668945312	0		3.218650634765625	-0.5511390380859374	0		4.76646142578125	-0.4211097106933594	0		5.595876953125	0.15992611694335937	0		-0.1615796661376953	5.971591796875	0		
0.026693307876586914	-0.0012713760137557984	0		0.5099750061035156	-2.56414794921875	0		-1.03530908203125	0.060380313873291014	0		-0.7610505981445312	-2.70747265625	0		1.29371728515625	-0.8870633544921875	0		3.210275390625	-0.56825146484375	0		4.76259765625	-0.4123914489746094	0		5.5968701171875	0.15950245666503907	0		-0.042050289154052733	5.98119482421875	0		
-0.05034681701660156	0.002147277116775513	0		0.481779052734375	-2.56370361328125	0		-1.0384580078125	0.05740320205688477	0		-0.760258056640625	-2.707539794921875	0		1.3124853515625	-0.8925663452148438	0		3.229427001953125	-0.5548385620117188	0		4.76519384765625	-0.4277265625	0		5.59778271484375	0.15916844177246095	0		-0.040893009185791016	5.98109716796875	0		
0.02841843795776367	-0.001460373044013977	0		0.52453466796875	-2.563625244140625	0		-0.9677481689453125	0.050981060028076175	0		-0.7744373168945312	-2.703313720703125	0		1.2923018798828125	-0.8912832641601562	0		3.203020263671875	-0.5654921875	0		4.76017724609375	-0.41883856201171876	0		5.593783203125	0.16801258850097656	0		-0.04087940979003906	5.98202978515625	0		
-0.051879524230957035	-0.001956364035606384	0		0.480124755859375	-2.56783251953125	0		-1.0450457763671874	0.05044457244873047	0		-0.738825927734375	-2.707059814453125	0		1.307871826171875	-0.8986755981445312	0		3.1957958984375	-0.5624720458984375	0		4.755740234375	-0.42690310668945314	0		5.586142578125	0.14899357604980468	0		-0.20559947204589843	5.9551806640625	0		
0.02977297592163086	-0.001605299949645996	0		0.5107645568847656	-2.566489990234375	0		-1.0303800048828125	0.05211304092407226	0		-0.7582363891601562	-2.707729248046875	0		1.2967099609375	-0.8875215454101563	0		3.219141845703125	-0.577013427734375	0		4.74948388671875	-0.4208759460449219	0		5.60992431640625	0.15642709350585937	0		-0.18774592590332032	5.96378173828125	0		
-0.04052581024169922	0.0077237610816955566	0		0.4884356689453125	-2.5590986328125	0		-1.0198895263671874	0.04986236572265625	0		-0.7196942138671875	-2.707527587890625	0		1.3051612548828124	-0.8917340698242188	0		3.2321005859375	-0.55531005859375	0		4.76412939453125	-0.41520947265625	0		5.6046328125	0.1654832000732422	0		-0.022676055908203124	5.9895166015625	0		
0.03073959732055664	-0.0017072709798812867	0		0.5397225341796875	-2.568135498046875	0		-1.031257080078125	0.0600418815612793	0		-0.7562137451171875	-2.705856201171875	0		1.2976822509765624	-0.887615478515625	0		3.20225244140625	-0.5697449951171875	0		4.75251123046875	-0.4179876403808594	0		5.60093115234375	0.1585553741455078	0		-0.037454978942871094	5.98076513671875	0		
-0.04686458206176758	0.001778689980506897	0		0.5022818603515625	-2.558424560546875	0		-1.039051025390625	0.053149341583251956	0		-0.7348199462890626	-2.7053125	0		1.31593505859375	-0.8929844360351562	0		3.21757958984375	-0.5710305786132812	0		4.75768212890625	-0.42705569458007814	0		5.60127099609375	0.15859457397460938	0		-0.03719347381591797	5.980728515625	0		
0.031334712982177736	-0.0017697689533233642	0		0.5103668518066407	-2.569596435546875	0		-1.0387989501953125	0.05310254669189453	0		-0.77148974609375	-2.70363232421875	0		1.2921705322265624	-0.8945189819335938	0		3.20286572265625	-0.5697056274414063	0		4.757943359375	-0.4269942016601562	0		5.59736572265625	0.1507513427734375	0		-0.16947537231445312	5.96027783203125	0		
-0.046440750122070315	0.0017296119928359986	0		0.48569741821289064	-2.564118896484375	0		-1.03455224609375	0.05698080062866211	0		-0.723442626953125	-2.7136025390625	0		1.295419189453125	-0.8915687255859375	0		3.2063212890625	-0.5557145385742187	0		4.75124169921875	-0.42077197265625	0		5.6116474609375	0.15658349609375	0		-0.1694384307861328	5.96025439453125	0		
0.031602262496948245	-0.0018013499975204467	0		0.5148530883789062	-2.564683837890625	0		-1.0303994140625	0.0598631477355957	0		-0.7530970458984375	-2.70405224609375	0		1.3065362548828126	-0.891763427734375	0		3.212100341796875	-0.5727607421875	0		4.76234716796875	-0.4208797912597656	0		5.60178076171875	0.15890530395507813	0		-0.15528024291992187	5.97096240234375	0		
-0.04631129455566406	0.0017059290409088136	0		0.5129176025390625	-2.566638427734375	0		-0.9604590454101563	0.05446839141845703	0		-0.7319747924804687	-2.70348876953125	0		1.298672607421875	-0.8875809936523438	0		3.233494384765625	-0.555092041015625	0		4.74141455078125	-0.4193498840332031	0		5.6018095703125	0.15905056762695313	0		-0.03719990539550781	5.98065673828125	0		
0.03161625862121582	-0.0018112089633941651	0		0.5109163818359375	-2.569587646484375	0		-1.0385230712890625	0.05294942474365234	0		-0.7580449829101562	-2.710008544921875	0		1.295602783203125	-0.891487548828125	0		3.20320654296875	-0.5694160766601563	0		4.75138671875	-0.42040774536132813	0		5.60178564453125	0.15921174621582032	0		-0.03837531661987305	5.9816708984375	0		
-0.0463871955871582	0.0016988519430160523	0		0.5011157836914063	-2.56038037109375	0		-1.0385816650390625	0.05291646957397461	0		-0.73596337890625	-2.707459228515625	0		1.29557373046875	-0.8914476928710937	0		3.201400146484375	-0.5572802124023437	0		4.74718896484375	-0.42818115234375	0		5.5968798828125	0.167481201171875	0		-0.03763827896118164	5.98064990234375	0		
